<svg width="1344" height="1662" viewBox="0 0 1344 1662" fill="none" xmlns="http://www.w3.org/2000/svg">
<path d="M575.897 659.473C559.96 715.81 540.401 815.228 524.464 871.565C512.15 914.646 499.835 958.556 486.796 1000.81C483.174 1013.24 485.347 1015.72 496.213 1015.72C521.567 1014.89 547.645 1014.89 573.723 1015.72C584.589 1016.55 589.66 1011.58 594.731 1001.64C644.714 905.533 698.32 767.176 748.303 671.072C754.099 660.302 759.894 656.159 770.76 656.159C822.916 656.988 875.797 656.988 927.954 656.159C958.379 656.159 980.835 638.761 990.977 608.936C1001.12 579.11 995.323 548.457 974.316 525.259C962.725 512.003 948.237 506.204 931.576 506.204C880.144 506.204 828.712 505.375 777.279 507.032C762.791 507.032 755.547 501.233 747.579 487.977C688.903 376.132 628.778 264.286 569.377 152.441C564.306 142.499 559.236 138.357 548.37 138.357C526.638 139.185 505.63 139.185 483.898 138.357C472.308 137.528 470.859 140.842 474.481 153.27C507.079 264.286 538.952 376.132 570.826 487.977C572.275 493.777 573.723 499.576 575.897 506.204C533.157 506.204 491.866 507.032 450.576 506.204C400.592 505.375 349.884 507.861 299.901 502.89C163.714 490.463 44.9127 370.332 18.11 217.891C6.51958 149.127 9.41718 82.0199 30.4247 15.7412C33.3223 4.9709 37.6687 0 48.5347 0C267.303 0.828484 485.347 0 704.115 0.828484C811.326 0.828484 917.088 15.7412 1017.06 61.3078C1140.2 117.645 1238.72 208.778 1298.85 347.135C1333.62 427.498 1345.93 514.489 1343.76 603.965C1342.31 670.244 1333.62 735.694 1313.33 797.83C1266.25 938.673 1181.49 1033.95 1056.9 1085.31C974.316 1119.28 888.112 1133.37 801.185 1139.17C683.832 1146.62 607.115 1139.17 489.763 1139.17C452.746 1139.17 435.661 1170.84 435.661 1210.72C436.385 1370.62 432.466 1481.33 432.466 1640.4C432.466 1655.31 429.568 1658.63 416.529 1659.45C283.24 1664.42 149.95 1660.28 16.6612 1661.94C4.34639 1661.94 0 1659.45 0 1643.71C0.724398 1485.47 0 1328.06 0 1169.82C0 1089.46 0 1009.92 0 929.559C0 918.789 1.4488 908.019 4.34639 898.077C52.8811 760.549 141.982 681.014 270.201 659.473C270.925 659.473 272.374 659.473 273.098 659.473C372.341 658.645 470.859 658.645 570.101 657.816C571.55 657.816 572.999 658.645 575.897 659.473Z" fill="white"/>
</svg>
